<?xml version="1.0" encoding="utf-8"?>
<!-- Generator: Adobe Illustrator 25.0.1, SVG Export Plug-In . SVG Version: 6.00 Build 0)  -->
<svg version="1.1" id="Layer_1" xmlns="http://www.w3.org/2000/svg" xmlns:xlink="http://www.w3.org/1999/xlink" x="0px" y="0px"
	 viewBox="0 0 135.3 48.7" style="enable-background:new 0 0 135.3 48.7;" xml:space="preserve">
<style type="text/css">
	.st0{fill:#D1E5F7;stroke:#D1E5F7;stroke-miterlimit:10;}
</style>
<g id="Layer_2_2_">
	<g id="Layer_1-2_1_">
		<path class="st0" d="M25.9,9c0,12.1-9.9,17.2-25.4,17.2v-2.1c14.1,0,23.2-4.3,23.2-15.1V7.2H0.5v-2h25.4V9z M39,47.1H2.8V31H39
			V47.1z M36.8,45.1v-12H5v12H36.8z M39,27.9h-2.2V3.6H39V27.9z"/>
		<path class="st0" d="M57.5,24.6l11.3,18.9L67,44.6L57,27.8c-1.7,9.9-5.3,15.8-11,17.3v-2.1c6.9-2,9.7-13.6,9.9-29.4h-9.6v-2H56v-8
			h2.2v8h9.5v2h-9.5C58.1,17.6,57.8,21.3,57.5,24.6z M87.3,3.6v44.6h-2.2V24.9H74.9v22.5h-2.2V3.9h2.2v19h10.2V3.6H87.3z"/>
		<path class="st0" d="M106.8,29.6c-8.6,0-13.4-5.6-13.4-12.6s4.8-12.7,13.4-12.7S120.2,10,120.2,17S115.5,29.6,106.8,29.6z
			 M106.8,27.7c6.8,0,11.2-4.3,11.2-10.7s-4.3-10.7-11.1-10.7S95.7,10.6,95.7,17S100.1,27.7,106.8,27.7z M134.9,45.1v2H97.8V33.4
			h2.2v11.7L134.9,45.1z M131.4,22.2v-10h-9.7l-0.2-2h9.9V3.6h2.2v33.3h-2.2V24.2h-9.9l0.2-2L131.4,22.2z"/>
	</g>
</g>
</svg>
