<svg xmlns="http://www.w3.org/2000/svg" viewBox="0 0 135.34 48.66"><defs><style>.cls-1{fill:#d1e5f7;stroke:#d1e5f7;}.cls-1,.cls-2{stroke-miterlimit:10;}.cls-2{fill:#a5ccec;stroke:#a5ccec;}</style></defs><g id="Layer_2" data-name="Layer 2"><g id="Layer_1-2" data-name="Layer 1"><path class="cls-1" d="M25.93,9.05c0,12.11-9.87,17.23-25.43,17.23V24.19c14.15,0,23.24-4.34,23.24-15.14V7.17H.5v-2H25.93ZM39,47.11H2.8V31H39Zm-2.19-2v-12H5v12ZM39,27.9H36.79V3.56H39Z"/><path class="cls-1" d="M106.85,29.62C98.24,29.62,93.48,24,93.48,17S98.24,4.35,106.85,4.35,120.22,10,120.22,17,115.47,29.62,106.85,29.62Zm0-1.93C113.64,27.69,118,23.4,118,17s-4.33-10.7-11.12-10.7S95.73,10.56,95.73,17,100.06,27.69,106.85,27.69Zm28,17.38v2H97.77V33.38H100V45.07Zm-3.45-22.92v-10h-9.71l-.16-2h9.87V3.56h2.2V36.82h-2.2V24.19h-9.92l.16-2Z"/><polygon class="cls-1" points="84.36 3.56 84.36 22.83 74.12 22.83 74.12 3.88 71.93 3.88 71.93 47.37 74.12 47.37 74.12 24.87 84.36 24.87 84.36 48.16 86.55 48.16 86.55 3.56 84.36 3.56"/><path class="cls-2" d="M68.35,34.4a3.23,3.23,0,0,0-.64-2.6L61,23.24l.13-.27c1.24-2.89,2.5-6.15,3.68-9.69l4.51,7.12,6.73-3.26-.95-2-5,2.42-4.45-7,.3-1,2.52-8.3L66.23.62,63.71,8.93l-.1.32L51,9.51,49.9,16.22l2.15.33.76-4.91,10.13-.21c-5.19,16.11-11.71,27.16-19.49,27L43,40.12l-.77,2.14,2,.74.9-2.51c5.43-.9,10.26-5.79,14.54-14.36l.32-.69,6,7.7a1.12,1.12,0,0,1,.22.87l-2,11,2.69,1.59L68,44.75l-1.39-.82Z"/></g></g></svg>